<svg width="117" height="117" viewBox="0 0 117 117" fill="none" xmlns="http://www.w3.org/2000/svg">
<path d="M58.2 116.4C46.6892 116.4 35.4368 112.987 25.8658 106.592C16.2949 100.196 8.83526 91.1069 4.43024 80.4722C0.0252171 69.8375 -1.12734 58.1355 1.11832 46.8458C3.36398 35.5561 8.907 25.1858 17.0464 17.0464C25.1858 8.907 35.5561 3.36398 46.8458 1.11832C58.1355 -1.12734 69.8375 0.0252171 80.4722 4.43024C91.1069 8.83526 100.196 16.2949 106.592 25.8658C112.987 35.4368 116.4 46.6892 116.4 58.2C116.374 73.6275 110.233 88.4155 99.3244 99.3244C88.4155 110.233 73.6275 116.374 58.2 116.4ZM58.2 10C48.667 10 39.348 12.8269 31.4215 18.1232C23.4951 23.4195 17.3172 30.9473 13.669 39.7547C10.0209 48.5621 9.06637 58.2535 10.9262 67.6034C12.786 76.9533 17.3766 85.5417 24.1175 92.2826C30.8584 99.0235 39.4468 103.614 48.7967 105.474C58.1466 107.334 67.838 106.379 76.6454 102.731C85.4528 99.0829 92.9806 92.905 98.2769 84.9785C103.573 77.0521 106.4 67.7331 106.4 58.2C106.4 51.8703 105.153 45.6026 102.731 39.7547C100.309 33.9068 96.7584 28.5933 92.2826 24.1175C87.8068 19.6417 82.4933 16.0913 76.6454 13.669C70.7975 11.2468 64.5297 10 58.2 10Z" fill="#FFBB2E"/>
<path d="M75.2998 84.5H44.7998C42.9433 84.5 41.1628 83.7625 39.8501 82.4497C38.5373 81.137 37.7998 79.3565 37.7998 77.5V56.6C37.7998 54.7435 38.5373 52.963 39.8501 51.6502C41.1628 50.3375 42.9433 49.6 44.7998 49.6H75.2998C77.1563 49.6 78.9368 50.3375 80.2496 51.6502C81.5623 52.963 82.2998 54.7435 82.2998 56.6V77.5C82.2998 79.3565 81.5623 81.137 80.2496 82.4497C78.9368 83.7625 77.1563 84.5 75.2998 84.5ZM44.7998 55.6C44.6646 55.5839 44.5275 55.5987 44.3989 55.6433C44.2702 55.6878 44.1534 55.761 44.0571 55.8573C43.9608 55.9536 43.8877 56.0704 43.8431 56.1991C43.7985 56.3277 43.7837 56.4648 43.7998 56.6V77.5C43.7837 77.6352 43.7985 77.7723 43.8431 77.9009C43.8877 78.0295 43.9608 78.1464 44.0571 78.2427C44.1534 78.3389 44.2702 78.4121 44.3989 78.4567C44.5275 78.5013 44.6646 78.5161 44.7998 78.5H75.2998C75.435 78.5161 75.5721 78.5013 75.7007 78.4567C75.8294 78.4121 75.9462 78.3389 76.0425 78.2427C76.1388 78.1464 76.212 78.0295 76.2565 77.9009C76.3011 77.7723 76.3159 77.6352 76.2998 77.5V56.6C76.3159 56.4648 76.3011 56.3277 76.2565 56.1991C76.212 56.0704 76.1388 55.9536 76.0425 55.8573C75.9462 55.761 75.8294 55.6878 75.7007 55.6433C75.5721 55.5987 75.435 55.5839 75.2998 55.6H44.7998Z" fill="#FFBB2E"/>
<path d="M73.9996 54.1H46.0996V42.9C46.3959 39.4041 47.9939 36.1469 50.5773 33.7732C53.1607 31.3994 56.5412 30.0822 60.0496 30.0822C63.558 30.0822 66.9385 31.3994 69.5219 33.7732C72.1054 36.1469 73.7034 39.4041 73.9996 42.9V54.1ZM49.0996 51.1H70.9996V42.9C70.739 40.1764 69.4728 37.6477 67.4481 35.8075C65.4234 33.9672 62.7856 32.9476 60.0496 32.9476C57.3136 32.9476 54.6758 33.9672 52.6511 35.8075C50.6264 37.6477 49.3602 40.1764 49.0996 42.9V51.1Z" fill="#FFBB2E"/>
</svg>
