<svg width="117" height="117" viewBox="0 0 117 117" fill="none" xmlns="http://www.w3.org/2000/svg">
<path d="M58.2 116.4C46.6892 116.4 35.4368 112.987 25.8658 106.592C16.2949 100.196 8.83526 91.1069 4.43024 80.4722C0.0252171 69.8375 -1.12734 58.1355 1.11832 46.8458C3.36398 35.5561 8.907 25.1858 17.0464 17.0464C25.1858 8.907 35.5561 3.36398 46.8458 1.11832C58.1355 -1.12734 69.8375 0.0252171 80.4722 4.43024C91.1069 8.83526 100.196 16.2949 106.592 25.8658C112.987 35.4368 116.4 46.6892 116.4 58.2C116.374 73.6275 110.233 88.4155 99.3244 99.3244C88.4155 110.233 73.6275 116.374 58.2 116.4ZM58.2 10C48.667 10 39.348 12.8269 31.4215 18.1232C23.4951 23.4195 17.3172 30.9473 13.669 39.7547C10.0209 48.5621 9.06637 58.2535 10.9262 67.6034C12.786 76.9533 17.3766 85.5417 24.1175 92.2826C30.8584 99.0235 39.4468 103.614 48.7967 105.474C58.1466 107.334 67.838 106.379 76.6454 102.731C85.4528 99.0829 92.9806 92.905 98.2769 84.9785C103.573 77.0521 106.4 67.7331 106.4 58.2C106.4 51.8703 105.153 45.6026 102.731 39.7547C100.309 33.9068 96.7584 28.5933 92.2826 24.1175C87.8068 19.6417 82.4933 16.0913 76.6454 13.669C70.7975 11.2468 64.5297 10 58.2 10Z" fill="#C7E017"/>
<path d="M57.8002 65.2L51.2002 58.6L53.3002 56.4L57.8002 61L67.9002 50.9L70.1002 53L57.8002 65.2Z" fill="#C7E017"/>
<path d="M71.1001 79.5H49.1001C46.1827 79.5 43.3848 78.3411 41.3219 76.2782C39.259 74.2153 38.1001 71.4174 38.1001 68.5V46.5C38.1001 43.5826 39.259 40.7847 41.3219 38.7218C43.3848 36.6589 46.1827 35.5 49.1001 35.5H71.1001C74.0175 35.5 76.8154 36.6589 78.8783 38.7218C80.9412 40.7847 82.1001 43.5826 82.1001 46.5V68.5C82.1001 71.4174 80.9412 74.2153 78.8783 76.2782C76.8154 78.3411 74.0175 79.5 71.1001 79.5ZM49.1001 41.5C47.774 41.5 46.5022 42.0268 45.5646 42.9645C44.6269 43.9021 44.1001 45.1739 44.1001 46.5V68.5C44.1001 69.8261 44.6269 71.0979 45.5646 72.0355C46.5022 72.9732 47.774 73.5 49.1001 73.5H71.1001C72.4262 73.5 73.698 72.9732 74.6356 72.0355C75.5733 71.0979 76.1001 69.8261 76.1001 68.5V46.5C76.1001 45.1739 75.5733 43.9021 74.6356 42.9645C73.698 42.0268 72.4262 41.5 71.1001 41.5H49.1001Z" fill="#C7E017"/>
</svg>
