<svg width="117" height="117" viewBox="0 0 117 117" fill="none" xmlns="http://www.w3.org/2000/svg">
<path d="M58.2 116.4C46.6892 116.4 35.4368 112.987 25.8658 106.592C16.2949 100.196 8.83526 91.1069 4.43024 80.4722C0.0252171 69.8375 -1.12734 58.1355 1.11832 46.8458C3.36398 35.5561 8.907 25.1858 17.0464 17.0464C25.1858 8.907 35.5561 3.36398 46.8458 1.11832C58.1355 -1.12734 69.8375 0.0252171 80.4722 4.43024C91.1069 8.83526 100.196 16.2949 106.592 25.8658C112.987 35.4368 116.4 46.6892 116.4 58.2C116.374 73.6275 110.233 88.4155 99.3244 99.3244C88.4155 110.233 73.6275 116.374 58.2 116.4ZM58.2 10C48.667 10 39.348 12.8269 31.4215 18.1232C23.4951 23.4195 17.3172 30.9473 13.669 39.7547C10.0209 48.5621 9.06637 58.2535 10.9262 67.6034C12.786 76.9533 17.3766 85.5417 24.1175 92.2826C30.8584 99.0235 39.4468 103.614 48.7967 105.474C58.1466 107.334 67.838 106.379 76.6454 102.731C85.4528 99.0829 92.9806 92.905 98.2769 84.9785C103.573 77.0521 106.4 67.7331 106.4 58.2C106.4 51.8703 105.153 45.6026 102.731 39.7547C100.309 33.9068 96.7584 28.5933 92.2826 24.1175C87.8068 19.6417 82.4933 16.0913 76.6454 13.669C70.7975 11.2468 64.5297 10 58.2 10Z" fill="#73D614"/>
<path d="M50.8671 50.3097L48.2158 51.7135L54.968 64.4662L57.6193 63.0624L50.8671 50.3097Z" fill="#73D614"/>
<path d="M58.6001 73.5C57.0088 73.5 55.4827 72.8679 54.3575 71.7426C53.2322 70.6174 52.6001 69.0913 52.6001 67.5C52.6001 65.9087 53.2322 64.3826 54.3575 63.2574C55.4827 62.1321 57.0088 61.5 58.6001 61.5C60.1914 61.5 61.7175 62.1321 62.8427 63.2574C63.968 64.3826 64.6001 65.9087 64.6001 67.5C64.6001 69.0913 63.968 70.6174 62.8427 71.7426C61.7175 72.8679 60.1914 73.5 58.6001 73.5ZM58.6001 64.5C57.8044 64.5 57.0414 64.8161 56.4788 65.3787C55.9162 65.9413 55.6001 66.7044 55.6001 67.5C55.6001 68.2956 55.9162 69.0587 56.4788 69.6213C57.0414 70.1839 57.8044 70.5 58.6001 70.5C59.3957 70.5 60.1588 70.1839 60.7214 69.6213C61.284 69.0587 61.6001 68.2956 61.6001 67.5C61.6001 66.7044 61.284 65.9413 60.7214 65.3787C60.1588 64.8161 59.3957 64.5 58.6001 64.5Z" fill="#73D614"/>
<path d="M39.1001 58.5H33.1001V61.5H39.1001V58.5Z" fill="#73D614"/>
<path d="M84.1001 58.5H78.1001V61.5H84.1001V58.5Z" fill="#73D614"/>
<path d="M79.8983 46.063L74.7021 49.063L76.2021 51.6611L81.3983 48.6611L79.8983 46.063Z" fill="#73D614"/>
<path d="M69.9751 37.1533L66.9751 42.3495L69.5732 43.8495L72.5732 38.6533L69.9751 37.1533Z" fill="#73D614"/>
<path d="M60.1001 34.5H57.1001V40.5H60.1001V34.5Z" fill="#73D614"/>
<path d="M47.1122 37.1759L44.5142 38.6759L47.5142 43.8721L50.1122 42.3721L47.1122 37.1759Z" fill="#73D614"/>
<path d="M37.2642 45.9394L35.7642 48.5375L40.9603 51.5375L42.4603 48.9394L37.2642 45.9394Z" fill="#73D614"/>
<path d="M81.7001 76.8L72.6001 71.6L75.6001 66.4L79.4001 68.6C80.5105 65.8681 81.0876 62.9489 81.1001 60C81.1001 54.0326 78.7296 48.3097 74.51 44.0901C70.2904 39.8705 64.5675 37.5 58.6001 37.5C52.6327 37.5 46.9098 39.8705 42.6902 44.0901C38.4706 48.3097 36.1001 54.0326 36.1001 60C36.0784 62.9426 36.6215 65.8621 37.7001 68.6L41.5001 66.4L44.5001 71.6L35.4001 76.8L33.9001 74.3C31.414 69.9438 30.1044 65.0157 30.1001 60C30.1001 56.2573 30.8373 52.5513 32.2695 49.0935C33.7018 45.6357 35.8011 42.4939 38.4476 39.8475C41.094 37.201 44.2358 35.1017 47.6936 33.6694C51.1514 32.2372 54.8574 31.5 58.6001 31.5C62.3428 31.5 66.0488 32.2372 69.5066 33.6694C72.9644 35.1017 76.1062 37.201 78.7526 39.8475C81.3991 42.4939 83.4984 45.6357 84.9307 49.0935C86.3629 52.5513 87.1001 56.2573 87.1001 60C87.0608 65.024 85.7169 69.9516 83.2001 74.3L81.7001 76.8Z" fill="#73D614"/>
</svg>
