<svg width="181" height="36" viewBox="0 0 181 36" fill="none" xmlns="http://www.w3.org/2000/svg">
<path d="M0.046875 35V0.875H12C16.1406 0.875 19.2812 1.67188 21.4219 3.26562C23.5625 4.84375 24.6328 7.16406 24.6328 10.2266C24.6328 11.8984 24.2031 13.375 23.3438 14.6562C22.4844 15.9219 21.2891 16.8516 19.7578 17.4453C21.5078 17.8828 22.8828 18.7656 23.8828 20.0938C24.8984 21.4219 25.4062 23.0469 25.4062 24.9688C25.4062 28.25 24.3594 30.7344 22.2656 32.4219C20.1719 34.1094 17.1875 34.9688 13.3125 35H0.046875ZM7.07812 20.1406V29.3516H13.1016C14.7578 29.3516 16.0469 28.9609 16.9688 28.1797C17.9062 27.3828 18.375 26.2891 18.375 24.8984C18.375 21.7734 16.7578 20.1875 13.5234 20.1406H7.07812ZM7.07812 15.1719H12.2812C15.8281 15.1094 17.6016 13.6953 17.6016 10.9297C17.6016 9.38281 17.1484 8.27344 16.2422 7.60156C15.3516 6.91406 13.9375 6.57031 12 6.57031H7.07812V15.1719Z" fill="white"/>
<path d="M41.9297 35.4688C38.2109 35.4688 35.1797 34.3281 32.8359 32.0469C30.5078 29.7656 29.3438 26.7266 29.3438 22.9297V22.2734C29.3438 19.7266 29.8359 17.4531 30.8203 15.4531C31.8047 13.4375 33.1953 11.8906 34.9922 10.8125C36.8047 9.71875 38.8672 9.17188 41.1797 9.17188C44.6484 9.17188 47.375 10.2656 49.3594 12.4531C51.3594 14.6406 52.3594 17.7422 52.3594 21.7578V24.5234H36.2109C36.4297 26.1797 37.0859 27.5078 38.1797 28.5078C39.2891 29.5078 40.6875 30.0078 42.375 30.0078C44.9844 30.0078 47.0234 29.0625 48.4922 27.1719L51.8203 30.8984C50.8047 32.3359 49.4297 33.4609 47.6953 34.2734C45.9609 35.0703 44.0391 35.4688 41.9297 35.4688ZM41.1562 14.6562C39.8125 14.6562 38.7188 15.1094 37.875 16.0156C37.0469 16.9219 36.5156 18.2188 36.2812 19.9062H45.7031V19.3672C45.6719 17.8672 45.2656 16.7109 44.4844 15.8984C43.7031 15.0703 42.5938 14.6562 41.1562 14.6562Z" fill="white"/>
<path d="M79.3359 35H55.9453V30.3594L66.9844 18.5938C68.5 16.9375 69.6172 15.4922 70.3359 14.2578C71.0703 13.0234 71.4375 11.8516 71.4375 10.7422C71.4375 9.22656 71.0547 8.03906 70.2891 7.17969C69.5234 6.30469 68.4297 5.86719 67.0078 5.86719C65.4766 5.86719 64.2656 6.39844 63.375 7.46094C62.5 8.50781 62.0625 9.89062 62.0625 11.6094H55.2656C55.2656 9.53125 55.7578 7.63281 56.7422 5.91406C57.7422 4.19531 59.1484 2.85156 60.9609 1.88281C62.7734 0.898438 64.8281 0.40625 67.125 0.40625C70.6406 0.40625 73.3672 1.25 75.3047 2.9375C77.2578 4.625 78.2344 7.00781 78.2344 10.0859C78.2344 11.7734 77.7969 13.4922 76.9219 15.2422C76.0469 16.9922 74.5469 19.0312 72.4219 21.3594L64.6641 29.5391H79.3359V35Z" fill="white"/>
<path d="M126.117 35.4688C122.398 35.4688 119.367 34.3281 117.023 32.0469C114.695 29.7656 113.531 26.7266 113.531 22.9297V22.2734C113.531 19.7266 114.023 17.4531 115.008 15.4531C115.992 13.4375 117.383 11.8906 119.18 10.8125C120.992 9.71875 123.055 9.17188 125.367 9.17188C128.836 9.17188 131.562 10.2656 133.547 12.4531C135.547 14.6406 136.547 17.7422 136.547 21.7578V24.5234H120.398C120.617 26.1797 121.273 27.5078 122.367 28.5078C123.477 29.5078 124.875 30.0078 126.562 30.0078C129.172 30.0078 131.211 29.0625 132.68 27.1719L136.008 30.8984C134.992 32.3359 133.617 33.4609 131.883 34.2734C130.148 35.0703 128.227 35.4688 126.117 35.4688ZM125.344 14.6562C124 14.6562 122.906 15.1094 122.062 16.0156C121.234 16.9219 120.703 18.2188 120.469 19.9062H129.891V19.3672C129.859 17.8672 129.453 16.7109 128.672 15.8984C127.891 15.0703 126.781 14.6562 125.344 14.6562Z" fill="white"/>
<path d="M146.648 9.64062L146.859 12.5703C148.672 10.3047 151.102 9.17188 154.148 9.17188C156.836 9.17188 158.836 9.96094 160.148 11.5391C161.461 13.1172 162.133 15.4766 162.164 18.6172V35H155.391V18.7812C155.391 17.3438 155.078 16.3047 154.453 15.6641C153.828 15.0078 152.789 14.6797 151.336 14.6797C149.43 14.6797 148 15.4922 147.047 17.1172V35H140.273V9.64062H146.648Z" fill="white"/>
<path d="M175.43 3.40625V9.64062H179.766V14.6094H175.43V27.2656C175.43 28.2031 175.609 28.875 175.969 29.2812C176.328 29.6875 177.016 29.8906 178.031 29.8906C178.781 29.8906 179.445 29.8359 180.023 29.7266V34.8594C178.695 35.2656 177.328 35.4688 175.922 35.4688C171.172 35.4688 168.75 33.0703 168.656 28.2734V14.6094H164.953V9.64062H168.656V3.40625H175.43Z" fill="white"/>
<path d="M96.8672 22.5078H91.2656V35H84.2344V0.875H96.9141C100.945 0.875 104.055 1.77344 106.242 3.57031C108.43 5.36719 109.523 7.90625 109.523 11.1875C109.523 13.5156 109.016 15.4609 108 17.0234C107 18.5703 105.477 19.8047 103.43 20.7266L110.812 34.6719V35H103.266L96.8672 22.5078ZM91.2656 16.8125H96.9375C98.7031 16.8125 100.07 16.3672 101.039 15.4766C102.008 14.5703 102.492 13.3281 102.492 11.75C102.492 10.1406 102.031 8.875 101.109 7.95312C100.203 7.03125 98.8047 6.57031 96.9141 6.57031H91.2656V16.8125Z" fill="#73D614"/>
</svg>
