<svg xmlns="http://www.w3.org/2000/svg" viewBox="0 0 514.3 237.3">
  <defs>
    <style>
      .cls-1, .cls-3 {
        fill: #fff;
      }

      .cls-2, .cls-4 {
        fill: #78b221;
      }

      .cls-3, .cls-4 {
        fill-rule: evenodd;
      }
    </style>
  </defs>
  <title>B2R_white</title>
  <g id="Слой_2" data-name="Слой 2">
    <g id="Слой_1-2" data-name="Слой 1">
      <g>
        <path class="cls-1" d="M148.8,115.7a25.9,25.9,0,0,1-6.1,17.2,21,21,0,0,1-27.6,4.5l-3.9-3.4c-.4.1-.6,1.1-.7,3s-.4,2.8-.9,2.8H99.1c-.3,0-.5-.2-.5-.6a6.2,6.2,0,0,1,.1-.9c.5-5.3.8-15.4.8-30.4,0-6.1-.3-15.2-.8-27-.4-7.6-.6-10.9-.6-10a1.3,1.3,0,0,1,1.3-1.4l5.4-.2,2.8-.3,2.9-.3c.5,0,.8.4.8,1.1s-.1,2.9-.3,5.2-.2,4-.2,5.2-.1,4.3-.2,7.8-.2,6-.2,7.7.2,1.9.7,1.9.4-.2.7-.5a17.4,17.4,0,0,1,14.4-6.8A20.5,20.5,0,0,1,142.9,98c4,4.8,5.9,10.7,5.9,17.7Zm-11.2-.4a15.6,15.6,0,0,0-3.7-10.4,12.4,12.4,0,0,0-19.7-.1,15.1,15.1,0,0,0-3.8,10.5,15.5,15.5,0,0,0,3.8,10.6,12.6,12.6,0,0,0,10,4.7,12.2,12.2,0,0,0,9.8-4.8,16.3,16.3,0,0,0,3.6-10.5Zm59-2.3a5,5,0,0,1-3.2,5c-1.4.5-11.7,1.5-30.8,2.9a11.2,11.2,0,0,0,4.8,7.5,14.6,14.6,0,0,0,8.6,2.9,23.3,23.3,0,0,0,14.4-5L192,125h.5a26.8,26.8,0,0,1,1.9,3.4,32.1,32.1,0,0,1,1.8,3.6c0,.2-.3.6-.8,1.1-4.9,5.2-11.1,7.8-18.8,7.8s-13.8-2.3-18.4-6.9-6.8-10.7-6.8-18.4a26.6,26.6,0,0,1,6.5-17.8,21.6,21.6,0,0,1,17-7.9,20.5,20.5,0,0,1,15.6,6.8,23.6,23.6,0,0,1,6.1,16.2Zm-11.8-3a9.9,9.9,0,0,0-3.3-7.3,10.4,10.4,0,0,0-7.3-3.2,11.4,11.4,0,0,0-8.2,3.7,11.7,11.7,0,0,0-3.5,8.2c0,.7.6,1.1,1.7,1.1a125.1,125.1,0,0,0,17.7-1.5c1.9-.3,2.9-.6,2.9-1Zm93.6-16.9a60.7,60.7,0,0,1-.7,9.9c-.1.8-.5,1.2-1,1.2l-3.2-.3-3.2-.2c-4.2,0-6.9,1.2-8,3.5s-1.1,4.4-1.1,8.9v5.5c0,1.9.1,4.7.2,8.5s.2,6.5.2,8.4-.3,1.3-1.1,1.3h-9.3c-.7,0-1.1-.4-1.1-1.2,0-2.7,0-6.7.1-12.1s.1-9.5.1-12.2c0-8.2-.7-14.8-2.2-19.7a1.8,1.8,0,0,1-.1-.6,1,1,0,0,1,.6-.9l5.2-.6,4.9-1c.5,0,.9,1,1,2.9s.5,3,.9,3h.3l4.1-2.6a17.3,17.3,0,0,1,9.5-2.6c2.6,0,3.9.4,3.9,1.1ZM324.5,113a4.8,4.8,0,0,1-3.2,5c-1.4.5-11.7,1.5-30.8,2.9.4,2.9,2.1,5.4,4.9,7.5a14.3,14.3,0,0,0,8.5,2.9,23.6,23.6,0,0,0,14.5-5L320,125h.5l1.9,3.4c1.1,2.3,1.7,3.4,1.7,3.6s-.3.6-.8,1.1c-4.9,5.2-11.1,7.8-18.7,7.8s-13.8-2.3-18.4-6.9-6.9-10.7-6.9-18.4a26.2,26.2,0,0,1,6.6-17.8A21.4,21.4,0,0,1,302.8,90a20.5,20.5,0,0,1,15.6,6.8,23.2,23.2,0,0,1,6.1,16.2Zm-11.8-3a10.2,10.2,0,0,0-3.2-7.3,10.6,10.6,0,0,0-7.4-3.2,11.1,11.1,0,0,0-8.1,3.7,11.4,11.4,0,0,0-3.6,8.2c0,.7.6,1.1,1.8,1.1a123.8,123.8,0,0,0,17.6-1.5c1.9-.3,2.9-.6,2.9-1Zm61.2,28.7c0,.8-.4,1.1-1,1.1H363c-.5,0-.9-.4-.9-1.4s.1-4.1.2-7.4.2-5.8.2-7.5-.1-3.3-.1-5.9v-6c0-3.7-.6-6.4-1.7-8s-3.8-2.7-7.3-2.7c-1.7,0-4,.9-6.9,2.8s-4.7,3.7-4.7,5.2v29.8c0,.8-.3,1.2-1,1.2h-9.5a1,1,0,0,1-1.1-1.1c0-2.6.1-6.5.2-11.8s.1-9.2.1-11.8a80.6,80.6,0,0,0-2.2-19.6,3.9,3.9,0,0,1-.2-.6.8.8,0,0,1,.7-.7l5.7-.9,5.6-.9c.2,0,.3.3.4.8a26.9,26.9,0,0,0,1.1,6.2l6.8-5a18.9,18.9,0,0,1,10.1-3.2c6.2,0,10.5,1.8,12.8,5.4s2.5,6.9,2.5,12.9c0,1,0,2.6-.1,4.7v4.8c0,2.2,0,5.5.1,9.9s.1,7.7.1,9.9Zm35.7-8c0,.7-.1,1.7-.2,2.9s-.3,2.6-.3,3a4.2,4.2,0,0,1-.2,1.1,1.7,1.7,0,0,1-.9.7c-2.7,1.3-7,2-12.8,2-7.7,0-11.6-3.6-11.6-10.6,0-2.8,0-7,.1-12.7s.2-9.9.2-12.7a2,2,0,0,0-2-2.2h-3.7c-.7-.2-1-1.5-1-4.1a15.1,15.1,0,0,1,.2-3c.1-.8.6-1.3,1.6-1.5h2.4c1.5-.1,2.3-.8,2.3-2.1s0-3.3-.1-6-.1-4.8-.1-6.2.5-3.6,1.4-3.6l9.3,1.5c.7.1,1.1.5,1.1,1.1s-.1,3.7-.4,6.6-.3,5.1-.3,6.6.4,1.4,1.3,1.4h12q.9,0,.9.6c0,.4-.1,1-.2,1.9s-.2,1.6-.2,2,.1,1.2.1,2.3v2.2c0,.7-.4,1-1.4,1l-6-.3-6-.2c-.3,0-.5.9-.6,2.8s-.1,5.7-.1,9.9v7.4a16,16,0,0,0,.8,6c.8,1.7,2.4,2.6,4.9,2.6a19.8,19.8,0,0,0,4.5-.7,23.4,23.4,0,0,1,4.4-.6q.6,0,.6.9Z"/>
        <path class="cls-2" d="M245.1,130.6c0,1-.1,2.4-.2,4.4s-.1,3.6-.1,4.5-.6,1.1-1.6,1.1l-4.7-.4c-3.5-.2-8.7-.4-15.6-.4l-10.7.2-10.7.2a1.4,1.4,0,0,1-1.4-1l-1.3-7.2c0-.4,1.1-.8,3.5-1.2s4.2-1,4.8-1.6A109.1,109.1,0,0,0,220.7,115c5.7-7.1,8.6-12.5,8.6-16.2a8.9,8.9,0,0,0-3.7-7.4,12.6,12.6,0,0,0-8-2.8,23.1,23.1,0,0,0-8.8,1.8,31.9,31.9,0,0,0-6.1,3.1l-2.6,1.8h-.5a2.2,2.2,0,0,1-.6-1.8c-.1-.8-.2-1.9-.3-3.4s-1-4.3-1-3.7.2-.6.7-.9a33.5,33.5,0,0,1,10.2-5A40.2,40.2,0,0,1,220,78.7q9.1,0,15,4.2c4.5,3.2,6.7,7.8,6.7,13.7s-5.8,15.5-17.5,27.1c-1.3,1.5-3.3,3.7-6.1,6.5h3.2c6.5,0,14-.4,22.4-1.2h.3c.7,0,1.1.5,1.1,1.6Zm183.5,1.9a8.2,8.2,0,0,1-2.2,5.7,7.1,7.1,0,0,1-5.4,2.5,6.7,6.7,0,0,1-5.4-2.6,8.3,8.3,0,0,1-2.1-5.6,8.4,8.4,0,0,1,2.1-5.8,7.1,7.1,0,0,1,5.4-2.3,7.2,7.2,0,0,1,5.5,2.4,8.2,8.2,0,0,1,2.1,5.7ZM464,93.1a60.7,60.7,0,0,1-.7,9.9c-.1.8-.5,1.2-1,1.2l-3.2-.3-3.2-.2c-4.2,0-6.9,1.2-8,3.5s-1.1,4.4-1.1,8.9v5.5c0,1.9.1,4.7.2,8.5s.2,6.5.2,8.4-.4,1.3-1.1,1.3h-9.3c-.7,0-1.1-.4-1.1-1.2,0-2.7,0-6.7.1-12.1s.1-9.5.1-12.2c0-8.2-.7-14.8-2.2-19.7a1.8,1.8,0,0,1-.1-.6,1,1,0,0,1,.6-.9l5.1-.6,5-1c.5,0,.9,1,1,2.9s.5,3,.9,3h.3l4-2.6a18.4,18.4,0,0,1,4.6-2,17.5,17.5,0,0,1,5-.6c2.6,0,3.9.4,3.9,1.1Zm50.1,1.5c0,2.5-.1,6.1-.3,11s-.3,8.6-.3,11,0,6.1.2,10.9.2,8.4.2,10.9a1.1,1.1,0,0,1-.9,1.2H502.8c-.4,0-.6-1.2-.7-3.7s-.2-3.7-.6-3.7a1.3,1.3,0,0,0-.7.4c-5.5,4.8-11,7.2-16.4,7.2-7.3,0-12.1-2.6-14.5-7.9q-2.1-5-2.1-17.7a89.9,89.9,0,0,1,1.8-19.5c.3-1.3.8-2,1.6-2h8.7a1,1,0,0,1,1,1.1,44.8,44.8,0,0,1-.7,6.5c-.4,3.2-.7,5.4-.7,6.8s-.1,4.2-.1,6.5q0,8.7,1.2,11.7c1.4,3.6,4.6,5.4,9.5,5.4,2,0,4.5-1,7.4-3.1s4.5-4.2,4.6-6.2.3-11.2.3-26.3c0-1.6.6-2.4,2-2.4h8.2c1,0,1.5.6,1.5,1.7Z"/>
        <path class="cls-1" d="M98.7,149.1v13.8h10.7a5.8,5.8,0,0,0,2.9-.6,2.5,2.5,0,0,0,1.1-2.1v-3.1a2.5,2.5,0,0,0-1-2.1,4.2,4.2,0,0,0-2.7-.5h-8.4v-3.3h11.3v-2.1Zm2.6,7.4h7.9a1.7,1.7,0,0,1,1.2.3,1.8,1.8,0,0,1,.4,1.3v1.2a1.5,1.5,0,0,1-.4,1.2,1.7,1.7,0,0,1-1.2.3h-7.9v-4.3Zm16.6-7.4v13.8h14v-2.1H120.5v-4h6.8v-2.1h-6.8v-3.5h11.3v-2.1Zm21.8,7.7h4.9a1.3,1.3,0,0,1,1,.3,1.3,1.3,0,0,1,.2.9v1.6a.9.9,0,0,1-1.2,1.2h-8.3v-2.5l-2.5.5v1.4c0,2.5,1.1,2.7,3,2.7h8.5c1.7,0,3.1-.2,3.1-3v-1.4c0-2.6-1.8-2.8-2.2-2.8a2.3,2.3,0,0,0,2-2.6v-1.3c0-1.6-.1-2.7-2.9-2.7h-8.1c-1.9,0-3,.3-3,2.7V153l2.5.4v-2.2h7.7a1.8,1.8,0,0,1,1,.2c.2.2.2.6.2,1.3v.5a2.7,2.7,0,0,1-.2,1.3,1.8,1.8,0,0,1-1,.2h-4.7v2.1Zm13.2,3a3.6,3.6,0,0,0,.7,2.4,3.8,3.8,0,0,0,2.7.7h9.9a4.4,4.4,0,0,0,2.7-.7,3.8,3.8,0,0,0,.7-2.6v-7.2a3.7,3.7,0,0,0-.7-2.5,3.8,3.8,0,0,0-2.7-.8H156.1a4.2,4.2,0,0,0-2.5.7,4.1,4.1,0,0,0-.7,2.6v7.4Zm2.6,1v-9.6H167v9.6Zm34.6-11.7H174.3v13.8h2.6V151.2h10.6v11.7h2.6V149.1Zm10.5,0-7.9,13.8h2.6l1.8-3.2h9.3l1.8,3.2h2.9L203,149.1Zm-2.5,8.6,3.6-6.6,3.7,6.6Zm27.4-6.5v2.9l2.6-.4v-1.3a3.7,3.7,0,0,0-.7-2.5,3.8,3.8,0,0,0-2.7-.8h-8.1a2.7,2.7,0,0,0-3.3,3.3v7.5a3.3,3.3,0,0,0,.5,2.1,3.2,3.2,0,0,0,2.6.9H225a3.6,3.6,0,0,0,2.4-.7,3.3,3.3,0,0,0,.7-2.3V158l-2.6-.5v3.3h-9.6v-9.6Zm20.4-2.1v5.6h-11v-5.6h-2.6v13.8h2.6v-6.1h11v6.1h2.6V149.1Zm13.1,0-8,13.8h2.7l1.7-3.2h9.4l1.8,3.2h2.9l-8.2-13.8Zm-2.5,8.6,3.6-6.6,3.6,6.6Zm29,5.2V149.1H274.3a3.3,3.3,0,0,0-2.1.7,2.9,2.9,0,0,0-.6,2v3a2.9,2.9,0,0,0,.5,1.9,3.2,3.2,0,0,0,2.3.8h1.9l-5.7,5.4h3.5l5-5.3h3.8v5.3Zm-2.6-11.7v4.3h-7.4a1.7,1.7,0,0,1-1.1-.3,1.4,1.4,0,0,1-.3-.9v-1.7a1.7,1.7,0,0,1,.4-1.2,2.2,2.2,0,0,1,1.1-.2Zm20.6-2.1-7.9,13.8h2.6l1.8-3.2h9.4l1.7,3.2H314l-8.1-13.8Zm-2.5,8.6,3.6-6.6,3.7,6.6Zm15.5-8.6v13.8h2.6v-5.4h9a3.3,3.3,0,0,0,2.4-.7,2.5,2.5,0,0,0,.7-1.9v-3.1a2.4,2.4,0,0,0-.7-1.9,3.1,3.1,0,0,0-2.4-.8Zm10.5,2.1a1.6,1.6,0,0,1,1.2.3c.2.1.4.4.4,1v1.7a1.2,1.2,0,0,1-.4,1,1.8,1.8,0,0,1-1.2.3h-7.9v-4.3Zm7.9-2.1v13.8h14v-2.1H337.5v-4h6.8v-2.1h-6.8v-3.5h11.3v-2.1Zm30.6,0v5.6h-11v-5.6h-2.6v13.8h2.6v-6.1h11v6.1h2.6V149.1Zm23.4,16.8v-5.1h-1.8L381,149.1h-2.2l-5.9,11.7h-1.8v5.1h2.3v-3h13v3Zm-4.5-5.1h-9.2l4.6-9.3,4.6,9.3Zm12.8-11.7-7.9,13.8H392l1.7-3.2h9.4l1.8,3.2h2.9l-8.2-13.8Zm-2.4,8.6,3.6-6.6,3.6,6.6Zm23-8.6v13.8h10.8a5.1,5.1,0,0,0,3-.7,2.3,2.3,0,0,0,.9-2v-1.8a2.4,2.4,0,0,0-1-2.2,3.7,3.7,0,0,0-1.4-.4,2.8,2.8,0,0,0,1.7-.7,2.1,2.1,0,0,0,.7-1.7v-1.6a2.4,2.4,0,0,0-.7-1.9,3.3,3.3,0,0,0-2.4-.8Zm12.1,4.4c0,.3,0,.7-.3.9s-.4.3-1.2.3h-8v-3.5h8a1.7,1.7,0,0,1,1.2.3,1.3,1.3,0,0,1,.3.8v1.2Zm-9.5,3.2h8.1a2,2,0,0,1,1.1.3,1.8,1.8,0,0,1,.4,1.3v1a1.9,1.9,0,0,1-.4,1.2,1.7,1.7,0,0,1-1.2.3h-8v-4.1Zm16.7-7.6v13.8H451v-2.1H439.7v-4h6.7v-2.1h-6.7v-3.5h11.2v-2.1Zm28.9,0h-2.5v11.7h-6.9V149.1H454v13.8h21.3l.2,3h2.2v-5.1h-2.2V149.1h-2.6v11.7H466V149.1Zm14.8,0v13.8h14v-2.1H483.4v-4h6.8v-2.1h-6.8v-3.5h11.2v-2.1Zm33.5,0h-2l-10.5,9.3-1.5,1.6c0-.9.1-1.7.1-2.2v-8.7h-2.6v13.8h2l10.6-9.4a7,7,0,0,0,1.4-1.5c0,.4-.1,1.6-.1,2.1v8.8h2.6V149.1Zm-5.6-6a2.1,2.1,0,0,1-.7,1.5,2.7,2.7,0,0,1-2,.6,3,3,0,0,1-2-.6,2.5,2.5,0,0,1-.6-1.5h-2.1a5.5,5.5,0,0,0,1.1,2.9,4.6,4.6,0,0,0,3.6,1.2,4.8,4.8,0,0,0,3.7-1.2,5.3,5.3,0,0,0,1-2.9Z"/>
        <path class="cls-3" d="M152.8,20.4a98,98,0,0,1,82.5,45H202.6A85.1,85.1,0,0,0,74.1,60a97.5,97.5,0,0,1,78.7-39.6Zm82.5,150.9a98.1,98.1,0,0,1-161.2,5.4,85.1,85.1,0,0,0,128.5-5.4Z"/>
        <path class="cls-4" d="M131.1,0a118.5,118.5,0,0,1,79.5,30.6,105.5,105.5,0,0,0-163.5,88v.2l-27-18.6-7.7,19.9v-1.5A118.6,118.6,0,0,1,131.1,0Z"/>
        <path class="cls-2" d="M24.4,114.2l56.4,38.7-25,7.7a105.4,105.4,0,0,0,154.7,46.1A118.6,118.6,0,0,1,24.3,170.4L0,177.8l24.4-63.6Z"/>
      </g>
    </g>
  </g>
</svg>
