<svg width="20" height="21" viewBox="0 0 20 21" fill="none" xmlns="http://www.w3.org/2000/svg">
<g id="24 / time / calendar-dates">
<path id="icon" fill-rule="evenodd" clip-rule="evenodd" d="M6.6665 5.49984H4.99984V4.6665H3.33317V7.1665H16.6665V4.6665H14.9998V5.49984H13.3332V4.6665H6.6665V5.49984ZM16.6665 8.83317H3.33317V17.1665H16.6665V8.83317ZM13.3332 2.99984H6.6665V2.1665H4.99984V2.99984H3.33317C2.4127 2.99984 1.6665 3.74603 1.6665 4.6665V17.1665C1.6665 18.087 2.4127 18.8332 3.33317 18.8332H16.6665C17.587 18.8332 18.3332 18.087 18.3332 17.1665V4.6665C18.3332 3.74603 17.587 2.99984 16.6665 2.99984H14.9998V2.1665H13.3332V2.99984ZM7.49984 12.1665H5.83317V10.4998H7.49984V12.1665ZM9.1665 12.1665H10.8332V10.4998H9.1665V12.1665ZM14.1665 12.1665H12.4998V10.4998H14.1665V12.1665ZM5.83317 15.4998H7.49984V13.8332H5.83317V15.4998ZM10.8332 15.4998H9.1665V13.8332H10.8332V15.4998Z" fill="#73D614"/>
</g>
</svg>
