<svg width="1920" height="325" viewBox="0 0 1920 325" fill="none" xmlns="http://www.w3.org/2000/svg">
<path d="M1877.31 226.605C1874.51 228.038 1872.21 230.267 1870.68 233.011C1869.16 235.755 1868.48 238.889 1868.74 242.018C1868.99 245.147 1870.17 248.129 1872.12 250.587C1874.08 253.046 1876.72 254.869 1879.71 255.827C1882.69 256.785 1885.9 256.835 1888.92 255.969C1891.94 255.104 1894.63 253.362 1896.66 250.965C1898.69 248.568 1899.96 245.624 1900.31 242.504C1900.66 239.385 1900.08 236.231 1898.64 233.441C1896.71 229.71 1893.39 226.895 1889.39 225.614C1885.39 224.333 1881.04 224.689 1877.31 226.605ZM1888 247.456C1886.66 248.143 1885.15 248.417 1883.65 248.244C1882.15 248.071 1880.74 247.458 1879.6 246.483C1878.45 245.508 1877.61 244.215 1877.2 242.766C1876.79 241.318 1876.82 239.78 1877.28 238.346C1877.74 236.913 1878.62 235.648 1879.8 234.713C1880.98 233.778 1882.41 233.213 1883.91 233.091C1885.41 232.969 1886.91 233.295 1888.23 234.027C1889.54 234.759 1890.61 235.866 1891.3 237.206C1892.22 239.003 1892.39 241.092 1891.77 243.014C1891.15 244.937 1889.8 246.534 1888 247.456ZM1852.45 182.001C1852.21 181.547 1852.06 181.049 1852.02 180.538C1851.97 180.026 1852.03 179.511 1852.19 179.022C1852.34 178.533 1852.6 178.08 1852.93 177.691C1853.27 177.302 1853.68 176.983 1854.14 176.754L1873.13 167.013C1873.58 166.78 1874.08 166.64 1874.59 166.6C1875.1 166.56 1875.61 166.621 1876.09 166.78C1876.58 166.939 1877.02 167.193 1877.41 167.527C1877.79 167.86 1878.11 168.267 1878.34 168.723L1908.89 228.289L1913.97 225.683L1883.42 166.117C1882.26 163.856 1880.25 162.147 1877.84 161.362C1875.42 160.578 1872.79 160.782 1870.52 161.931L1851.53 171.673C1849.26 172.835 1847.55 174.851 1846.77 177.277C1845.99 179.703 1846.2 182.339 1847.36 184.607L1851.11 191.907L1856.19 189.301L1852.45 182.001ZM1927.38 226.803L1923.02 229.037L1918.39 225.963L1906.53 232.043L1906.33 237.599L1901.97 239.833L1902.57 249.253L1934.71 232.769L1927.38 226.803ZM1868.39 248.953C1866.21 244.676 1865.82 239.71 1867.3 235.142C1868.77 230.575 1872 226.779 1876.27 224.589C1878.61 223.379 1881.18 222.702 1883.81 222.606L1869.89 195.465C1868.74 193.231 1866.74 191.547 1864.34 190.782C1861.94 190.016 1859.34 190.231 1857.1 191.379L1849.44 195.309C1844.76 197.708 1841.89 203.818 1842.99 208.956L1854.98 263.32C1856.09 268.457 1860.83 270.659 1865.47 268.281L1883.98 258.787C1880.74 258.701 1877.58 257.742 1874.84 256.011C1872.09 254.281 1869.87 251.842 1868.39 248.953Z" fill="#FFBB2E"/>
<path d="M1623.45 241.641L1629.91 243.011L1633.67 225.266C1633.95 223.987 1633.84 222.655 1633.36 221.438C1632.88 220.221 1632.05 219.173 1630.97 218.429C1629.9 217.684 1628.62 217.276 1627.32 217.255C1626.01 217.235 1624.72 217.603 1623.62 218.314C1622.53 219.024 1621.66 220.045 1621.14 221.247C1620.63 222.448 1620.48 223.777 1620.71 225.063C1620.95 226.35 1621.57 227.537 1622.48 228.474C1623.39 229.412 1624.56 230.057 1625.84 230.328L1623.45 241.641ZM1685.54 220.244C1685.78 219.103 1685.8 217.924 1685.59 216.776C1685.38 215.628 1684.94 214.533 1684.31 213.554C1683.67 212.576 1682.85 211.733 1681.88 211.074C1680.92 210.415 1679.83 209.954 1678.69 209.717L1649.13 203.455C1647.99 203.208 1646.81 203.19 1645.66 203.402C1644.51 203.613 1643.42 204.049 1642.44 204.686C1641.46 205.322 1640.61 206.146 1639.96 207.11C1639.3 208.074 1638.84 209.159 1638.6 210.302L1631.6 243.367L1678.53 253.31L1685.54 220.244ZM1645.47 227.87C1644.99 227.769 1644.55 227.527 1644.21 227.176C1643.86 226.826 1643.63 226.381 1643.54 225.899C1643.46 225.417 1643.51 224.92 1643.7 224.469C1643.9 224.019 1644.22 223.636 1644.63 223.368C1645.04 223.101 1645.52 222.962 1646.01 222.968C1646.5 222.974 1646.98 223.125 1647.38 223.403C1647.79 223.68 1648.1 224.071 1648.28 224.526C1648.46 224.981 1648.51 225.48 1648.41 225.959C1648.27 226.602 1647.88 227.165 1647.33 227.523C1646.78 227.882 1646.11 228.006 1645.47 227.87ZM1661.63 217.361C1661.15 217.259 1660.71 217.018 1660.37 216.667C1660.02 216.316 1659.79 215.871 1659.7 215.39C1659.61 214.908 1659.67 214.41 1659.86 213.96C1660.05 213.509 1660.38 213.126 1660.79 212.859C1661.2 212.592 1661.68 212.452 1662.17 212.458C1662.66 212.464 1663.14 212.616 1663.54 212.893C1663.95 213.17 1664.26 213.561 1664.44 214.016C1664.62 214.471 1664.67 214.97 1664.56 215.45C1664.5 215.768 1664.37 216.07 1664.18 216.338C1664 216.607 1663.76 216.836 1663.49 217.014C1663.22 217.191 1662.91 217.313 1662.59 217.373C1662.27 217.432 1661.94 217.428 1661.63 217.361ZM1672.14 233.519C1671.66 233.417 1671.22 233.176 1670.88 232.825C1670.53 232.474 1670.3 232.03 1670.21 231.548C1670.12 231.066 1670.18 230.568 1670.37 230.118C1670.56 229.667 1670.89 229.284 1671.3 229.017C1671.71 228.75 1672.19 228.61 1672.68 228.617C1673.17 228.623 1673.65 228.774 1674.05 229.051C1674.46 229.329 1674.77 229.719 1674.95 230.175C1675.13 230.63 1675.17 231.128 1675.07 231.608C1674.94 232.251 1674.55 232.814 1674 233.172C1673.45 233.53 1672.78 233.655 1672.14 233.519ZM1691.8 230.859C1690.96 230.675 1690.08 230.661 1689.23 230.816C1688.38 230.971 1687.56 231.293 1686.84 231.763C1686.11 232.234 1685.48 232.843 1684.99 233.557C1684.5 234.27 1684.16 235.074 1683.98 235.921L1680.22 253.666L1686.68 255.035L1689.08 243.722C1690.78 244.083 1692.56 243.752 1694.02 242.801C1695.49 241.851 1696.51 240.358 1696.87 238.653C1697.23 236.947 1696.9 235.168 1695.95 233.706C1695 232.245 1693.51 231.221 1691.8 230.859ZM1623.77 267.533L1627.64 268.353L1635.27 257.761L1628.83 256.398L1623.77 267.533ZM1621.04 252.989L1684.28 266.383L1686.33 256.719L1623.09 243.325L1621.04 252.989ZM1669.34 264.978L1672.02 277.753L1675.89 278.574L1675.77 266.34L1669.34 264.978Z" fill="#FFBB2E"/>
<path d="M1700.35 148.555L1699.12 143.891C1698.4 140.957 1698.45 137.889 1699.25 134.978C1699.97 131.873 1701.7 129.097 1704.18 127.093C1733.65 101.674 1763.19 76.3341 1792.59 50.8344C1797 46.8861 1801.98 46.5035 1807.29 47.6454C1811.1 48.429 1814.48 50.5715 1816.82 53.6721C1831.77 71.2214 1846.83 88.6786 1862 106.044C1867.52 112.45 1866.32 122.709 1862.18 127.952C1860.16 130.473 1857.91 132.792 1855.44 134.879L1774.65 204.575C1770.09 208.363 1764.83 210.525 1758.76 209.477C1752.69 208.429 1750.83 207.242 1747.93 203.879C1731.98 185.232 1716.03 166.733 1700.35 148.555ZM1726.6 143.369L1758.72 180.605C1760.33 181.174 1761.54 181.939 1762.82 181.958C1764.42 181.91 1766.02 181.702 1767.59 181.335L1836.45 121.93C1837.94 120.09 1839.49 118.33 1838.19 115.685C1837.88 114.837 1838.26 113.666 1838.26 112.691C1836.3 109.772 1834.65 106.726 1832.43 104.312C1823.64 94.4406 1815.89 83.5218 1805.44 74.8024C1802.81 74.8335 1799.89 74.8427 1797.27 74.7247L1730.17 132.61C1729.19 133.415 1728.39 134.418 1727.83 135.553C1727.27 136.687 1726.95 137.928 1726.91 139.192L1726.6 143.369Z" fill="#FFBB2E"/>
<path d="M1680.12 164.609C1679.74 167.73 1676.7 168.256 1675.51 170.118L1670.88 170.901L1656.72 154.485L1658.17 150.018L1663.62 145.321C1663.27 141.846 1662.17 138.466 1662.67 134.828C1663.07 131.155 1664.82 127.759 1667.57 125.292L1756.38 48.688C1761.18 44.5435 1766.69 44.1248 1772.61 46.1365L1776.05 47.3646C1778.09 49.0903 1780.15 50.6668 1782.42 52.4836L1704.9 119.348C1701.79 122.178 1699.1 125.439 1696.91 129.032C1693.77 133.974 1692.89 142.832 1696.26 149.004C1698.56 153.448 1702.39 156.429 1705.06 160.826C1702.68 164.699 1698.11 165.711 1694.19 166.997C1690.27 168.282 1684.8 167.129 1680.12 164.609Z" fill="#FFBB2E"/>
<path d="M1826.24 58.1162C1824.53 52.8909 1826.52 49.214 1829.5 45.3849C1834.54 39.0832 1837.42 36.7457 1844.81 35.1166C1845.27 35.0005 1845.68 34.5059 1846.13 34.539C1846.57 34.572 1849.27 34.6209 1850.76 34.7309L1884.68 74.0496C1884.86 77.7791 1883.83 81.4679 1881.73 84.5546C1879.46 88.0282 1876.42 90.9341 1872.85 93.0478C1868.62 95.5846 1863.77 98.2265 1857.95 94.8724L1826.24 58.1162Z" fill="#FFBB2E"/>
<path d="M1766.31 168.193L1742.34 140.406C1742.67 139.512 1743.11 138.663 1743.65 137.878C1744.46 136.992 1745.35 136.18 1746.3 135.45L1799.55 89.5148L1800.07 89.6279C1800.15 89.6223 1800.24 89.6358 1800.31 89.6674C1800.39 89.6991 1800.45 89.7479 1800.51 89.8101L1824.68 117.838L1766.31 168.193ZM1799.6 105.115L1758.12 140.896L1761.3 144.579L1802.78 108.798L1799.6 105.115Z" fill="#FFBB2E"/>
<path d="M404.878 186.707L405.589 184.56L397.39 181.831L395.239 188.328L383.188 184.317L380.654 191.97L384.341 193.197L380.348 205.253L378.661 204.998C378.628 206.576 378.374 208.08 378.56 209.548C378.986 212.318 378.551 215.107 378.813 217.822C379.075 220.538 378.86 223.216 379.084 225.858C379.309 228.5 379.261 232.151 379.395 235.252C379.529 238.353 379.701 242.444 379.744 246.003C379.788 249.563 380.015 253.672 380.022 257.525C380.029 261.378 380.166 266.13 380.284 270.387C380.402 274.643 380.169 277.744 380.616 281.376C380.666 282.49 380.643 283.605 380.548 284.716L379.027 284.698C378.834 289.524 379.154 294.275 379.273 299.082C379.392 303.889 379.438 308.733 379.502 313.888L389.132 317.093L386.616 324.691L364.77 317.421L367.268 309.878L374.421 312.259C374.306 309.287 374.173 306.553 374.112 303.783C373.977 299.765 373.658 295.747 373.889 291.728C373.977 289.802 373.24 287.968 373.805 286.078C373.859 285.729 373.4 285.271 373.143 284.757L371.842 285.18C371.82 283.217 371.872 281.217 371.776 279.29C371.716 276.336 371.601 273.364 371.467 270.447C371.427 268.539 371.497 266.668 371.383 264.796C371.174 260.815 371.057 256.742 370.976 252.742C370.896 248.743 370.596 245.037 370.644 241.202C370.675 238.523 370.524 235.845 370.556 233.166C370.587 230.487 370.306 227.093 370.227 224.011C370.169 222.525 370.24 221.02 370.201 219.479C370.2 218.929 370.07 218.397 370.014 217.644C368.607 220.049 347.604 282.737 343.268 297.491L350.697 299.963C350.626 301.284 350.06 302.44 349.695 303.541C349.331 304.642 348.911 305.908 348.583 306.899C348.255 307.89 347.063 307.432 346.292 307.176L326.373 300.547L328.925 292.839L334.813 294.799L360.846 216.182C358.578 219.34 356.054 222.35 353.567 225.251C349.707 229.711 346.618 234.796 342.373 238.945C340.309 242.781 337.18 245.773 334.675 249.279C332.17 252.785 330.212 254.823 327.999 257.632C325.786 260.44 323.08 264.001 320.52 267.305L318.759 266.719C313.089 273.695 307.584 280.725 302.025 288.104L308.793 290.357L306.223 298.119L284.432 290.868C284.522 289.675 285.088 288.519 285.471 287.363C285.854 286.207 286.181 285.032 286.655 283.601C287.298 283.575 287.942 283.606 288.58 283.691C291.24 284.515 293.863 285.449 296.669 286.383C302.387 279.077 308.093 271.747 313.787 264.392C314.008 264.002 314.151 263.572 314.206 263.126L313.16 262.228C316.197 259.143 318.445 255.491 321.225 252.26C324.006 249.029 326.419 245.432 329.162 242.127C331.906 238.823 333.716 236.125 336.13 233.261C338.545 230.397 340.703 227.754 342.714 224.817C343.866 223.184 345.201 221.733 346.335 220.155C347.35 218.559 348.554 217.092 349.92 215.786C351.384 214.5 352.242 212.647 353.486 211.105C355.333 208.664 357.272 206.314 359.1 203.928C360.179 202.514 361.46 201.229 362.227 199.467L360.136 198.771L364.146 186.66L368.273 188.033L370.607 180.986L370.092 179.959L358.426 176.077L363.84 159.726L400.598 171.959L398.994 176.803C399.456 177.234 399.967 177.61 400.517 177.922L406.515 179.918L408.051 178.045L428.576 184.876L429.976 188.398L429.028 191.26L426.886 192.748L424.247 193.153L404.878 186.707Z" fill="#FFBB2E"/>
<path d="M41.3502 255.785C35.5085 255.785 29.9062 253.465 25.7755 249.334C21.6448 245.203 19.3243 239.601 19.3243 233.759C19.3243 233.518 19.3428 233.276 19.3614 233.035L38.2116 211.975C39.2501 211.812 40.2991 211.725 41.3502 211.715C47.0835 211.881 52.5263 214.276 56.5228 218.39C60.5193 222.504 62.7549 228.014 62.7549 233.75C62.7549 239.486 60.5193 244.996 56.5228 249.11C52.5263 253.224 47.0835 255.619 41.3502 255.785Z" fill="#FFBB2E"/>
<path d="M19.8256 228.466L19.5284 220.313L6.88116 207.74L13.1584 200.999L26.6228 212.662L34.7757 212.365L19.8256 228.466Z" fill="#FFBB2E"/>
<path d="M9.44415 220.963C13.0033 220.963 15.8885 223.849 15.8885 227.408C15.8885 230.967 13.0033 233.852 9.44415 233.852C5.88504 233.852 2.99981 230.967 2.99981 227.408C2.99981 223.849 5.88504 220.963 9.44415 220.963Z" fill="#FFBB2E"/>
<path d="M207.998 174.973L150.024 213.894C149.183 214.474 148.602 215.359 148.405 216.362C148.208 217.364 148.411 218.403 148.969 219.258L202.974 299.699C203.257 300.12 203.62 300.482 204.042 300.763C204.465 301.044 204.939 301.239 205.437 301.337C205.935 301.435 206.448 301.434 206.946 301.334C207.443 301.233 207.916 301.036 208.338 300.753L266.312 261.832C266.733 261.549 267.095 261.186 267.376 260.763C267.657 260.341 267.852 259.867 267.95 259.368C268.048 258.87 268.047 258.358 267.947 257.86C267.846 257.362 267.649 256.889 267.366 256.468L213.362 176.028C213.079 175.606 212.716 175.245 212.293 174.964C211.871 174.682 211.397 174.487 210.899 174.389C210.4 174.291 209.888 174.293 209.39 174.393C208.893 174.493 208.419 174.69 207.998 174.973ZM171.74 205.857C172.268 205.503 172.915 205.373 173.539 205.495C174.163 205.618 174.713 205.984 175.067 206.512C175.241 206.771 175.362 207.063 175.422 207.369C175.482 207.676 175.481 207.992 175.417 208.298C175.354 208.604 175.23 208.894 175.053 209.152C174.875 209.41 174.649 209.629 174.385 209.798C174.132 209.977 173.844 210.102 173.541 210.166C173.237 210.231 172.924 210.233 172.619 210.173C172.315 210.113 172.025 209.992 171.769 209.818C171.512 209.643 171.294 209.418 171.126 209.157C170.947 208.901 170.82 208.612 170.753 208.307C170.687 208.001 170.682 207.686 170.739 207.378C170.797 207.071 170.915 206.778 171.086 206.517C171.258 206.256 171.48 206.031 171.74 205.857ZM163.818 211.176C164.346 210.837 164.986 210.718 165.6 210.846C166.215 210.973 166.755 211.336 167.104 211.857C167.354 212.377 167.408 212.97 167.257 213.526C167.106 214.083 166.759 214.566 166.28 214.887C165.801 215.209 165.222 215.347 164.65 215.276C164.078 215.206 163.55 214.931 163.163 214.503C162.809 213.975 162.679 213.328 162.802 212.704C162.924 212.08 163.29 211.53 163.818 211.176ZM158.501 220.462C158.245 220.642 157.956 220.769 157.65 220.835C157.345 220.902 157.029 220.906 156.722 220.849C156.414 220.792 156.122 220.674 155.86 220.502C155.599 220.331 155.375 220.108 155.201 219.849C154.846 219.321 154.716 218.674 154.839 218.05C154.961 217.426 155.327 216.876 155.855 216.522C156.383 216.167 157.03 216.037 157.654 216.16C158.278 216.282 158.828 216.648 159.182 217.176C159.356 217.435 159.477 217.727 159.537 218.034C159.597 218.341 159.596 218.656 159.532 218.962C159.469 219.269 159.345 219.559 159.168 219.816C158.99 220.074 158.764 220.294 158.501 220.462ZM254.699 254.894C255.133 255.54 255.292 256.333 255.142 257.097C254.992 257.861 254.544 258.534 253.898 258.968L210.428 288.152C209.781 288.586 208.989 288.746 208.225 288.595C207.461 288.445 206.788 287.997 206.354 287.351L175.724 241.728C175.29 241.081 175.131 240.289 175.281 239.525C175.431 238.761 175.879 238.088 176.525 237.654L219.995 208.469C220.642 208.035 221.434 207.876 222.198 208.026C222.962 208.176 223.635 208.624 224.069 209.271L254.699 254.894ZM215.586 188.031C215.925 188.559 216.044 189.199 215.916 189.814C215.789 190.428 215.426 190.968 214.905 191.318L196.867 203.428C196.346 203.763 195.715 203.883 195.108 203.763C194.5 203.644 193.963 203.294 193.607 202.787L189.571 196.774C189.221 196.253 189.089 195.616 189.204 194.999C189.318 194.382 189.67 193.835 190.184 193.475L208.222 181.365C208.484 181.189 208.777 181.067 209.086 181.005C209.395 180.942 209.712 180.942 210.021 181.003C210.33 181.063 210.624 181.184 210.886 181.359C211.149 181.533 211.374 181.757 211.549 182.019L215.586 188.031Z" fill="#FFBB2E"/>
<path d="M209.609 261.473C216.148 256.553 215.745 249.28 210.535 241.52L189.328 255.757C194.538 263.517 201.117 266.644 208.147 262.455L214.065 271.271L208.044 276.787L208.371 277.274L223.24 267.292L222.913 266.804L215.555 270.33L209.609 261.473Z" fill="#FFBB2E"/>
<path d="M208.236 227.386C205.248 229.392 202.865 232.177 201.347 235.441C199.829 238.704 199.233 242.32 199.624 245.898L206.408 241.343C206.727 239.643 207.383 238.025 208.339 236.583C209.295 235.142 210.53 233.907 211.973 232.952C213.779 231.723 215.863 230.965 218.036 230.746C220.21 230.528 222.403 230.856 224.418 231.7C226.432 232.544 228.204 233.879 229.572 235.581C230.94 237.284 231.861 239.302 232.252 241.451C232.642 243.6 232.489 245.813 231.807 247.888C231.125 249.964 229.936 251.836 228.347 253.334C226.758 254.833 224.82 255.911 222.708 256.471C220.597 257.03 218.379 257.054 216.256 256.539C215.565 258.574 214.393 260.412 212.84 261.897L213.331 262.628C216.522 263.636 219.916 263.818 223.196 263.156C226.476 262.494 229.535 261.011 232.085 258.844C234.635 256.678 236.594 253.9 237.777 250.77C238.961 247.64 239.33 244.261 238.852 240.949C238.373 237.637 237.061 234.501 235.04 231.835C233.018 229.168 230.353 227.059 227.294 225.703C224.234 224.348 220.881 223.791 217.548 224.086C214.214 224.38 211.01 225.515 208.236 227.386Z" fill="#FFBB2E"/>
<path d="M199.825 130.959L201.29 126.759C194.33 129.429 188.467 126.086 188.178 125.934L188.013 125.799L177.439 115.705C171.345 109.898 164.605 104.808 157.353 100.534L157.32 100.507L155.643 99.3895C153.001 100.843 151.61 102.214 151.61 102.214L187.829 131.702C188.649 130.704 189.831 130.071 191.117 129.942C192.403 129.813 193.687 130.199 194.689 131.015L195.963 132.052C196.269 132.3 196.63 132.471 197.015 132.55C197.4 132.629 197.799 132.615 198.178 132.508C198.556 132.4 198.904 132.204 199.19 131.934C199.477 131.665 199.695 131.33 199.825 130.959Z" fill="#FFBB2E"/>
<path d="M178.714 114.376L189.218 124.386C190.007 124.836 195.727 127.678 202.121 124.354L207.108 110.118C207.474 109.053 207.505 107.901 207.196 106.818C206.887 105.735 206.253 104.773 205.38 104.062L187.015 89.1086C185.887 88.1904 184.44 87.7578 182.994 87.906C181.547 88.0542 180.218 88.771 179.3 89.8988L174.033 96.3682C166.928 95.2609 161.357 96.696 157.53 98.4226L158.329 98.9626C165.688 103.309 172.527 108.48 178.714 114.376ZM184.067 96.7509C184.198 96.5979 184.359 96.4724 184.539 96.3815C184.719 96.2906 184.916 96.2361 185.117 96.2211C185.318 96.2061 185.52 96.2309 185.712 96.2942C185.904 96.3574 186.081 96.4577 186.234 96.5895L198.362 106.464C199.189 107.137 199.165 108.384 198.311 108.926L194.394 111.405C193.098 112.22 191.339 112.082 190.065 111.045L182.355 104.767C180.75 103.46 180.456 101.185 181.682 99.6795L184.067 96.7509Z" fill="#FFBB2E"/>
<path d="M191.762 108.657C192.008 108.354 192.124 107.966 192.085 107.577C192.045 107.189 191.852 106.832 191.55 106.586L186.884 102.787C186.581 102.54 186.193 102.424 185.804 102.464C185.416 102.504 185.059 102.696 184.812 102.999L183.533 104.571L190.482 110.229L191.762 108.657Z" fill="#FFBB2E"/>
<path d="M1472.88 85.9906L1477.42 73.3817C1477.42 73.3817 1569.8 188.966 1579.18 204.583C1588.56 220.201 1587.13 234.224 1571.07 246.735L1548.37 217.11C1548.37 217.11 1562.17 205.304 1550.57 186.801C1538.98 168.297 1472.88 85.9906 1472.88 85.9906Z" fill="#FFBB2E"/>
<path d="M1544.65 220.808L1567.06 248.793L1524.52 280.787L1500.42 249.364L1544.65 220.808Z" fill="#FFBB2E"/>
<path d="M1519.85 283.837L1496.21 253.278C1496.21 253.278 1485.34 255.387 1484.3 266.322C1483.25 277.258 1493.95 289.634 1502.35 290.03C1510.75 290.425 1519.85 283.837 1519.85 283.837Z" fill="#FFBB2E"/>
<path d="M1501.96 195.994C1499.99 209.825 1492.96 220.308 1486.18 219.343L1501.36 221.503C1508.08 222.459 1515.17 211.985 1517.14 198.154C1519.1 184.322 1515.23 172.23 1508.51 171.273L1493.33 169.114C1500.11 170.078 1503.94 182.107 1501.96 195.994Z" fill="#FFBB2E"/>
<path d="M1475.08 192.168C1473.11 206 1477 218.036 1483.78 219.001C1490.55 219.965 1497.58 209.482 1499.55 195.651C1501.52 181.82 1497.64 169.727 1490.92 168.771C1484.2 167.815 1477.06 178.281 1475.08 192.168Z" fill="#FFBB2E"/>
<path d="M109.205 59.4534L-44.7695 12.0986L-73.8031 106.501L-84.3572 103.256L-54.2445 5.34418C-53.653 3.49628 -52.3597 1.95385 -50.6415 1.04688C-48.9232 0.139916 -46.9164 -0.0595609 -45.0504 0.491122L115.96 50.0099C117.813 50.603 119.361 51.8957 120.273 53.6114C121.184 55.3272 121.387 57.3298 120.838 59.1908L90.7254 157.102L80.1714 153.856L109.205 59.4534ZM103.543 165.51L100.707 174.73L95.7086 178.462L-100.482 118.123L-102.52 112.227L-99.6839 103.007L103.543 165.51Z" fill="#FFBB2E"/>
</svg>
