<svg width="22" height="23" viewBox="0 0 22 23" fill="none" xmlns="http://www.w3.org/2000/svg">
<path d="M9.6409 12.7212V13.8996H13.4174V15.7646H9.61306V18.2792H6.61602V15.7832H4.7417V13.9182H6.5789V12.7305H4.73242V10.884H6.58818V4.12905C7.35832 4.04554 8.09134 3.94348 8.82437 3.8878C10.6152 3.76718 12.406 3.69295 14.1597 4.17544C15.635 4.57443 16.7577 5.42808 17.1103 7.02403C17.7227 9.74272 16.3031 11.8954 13.5194 12.4707C12.7678 12.6284 11.9977 12.6655 11.2368 12.7119C10.7172 12.749 10.1883 12.7212 9.6409 12.7212ZM9.6409 10.8098C9.98421 10.8098 10.2811 10.8376 10.5688 10.8005C11.2647 10.717 11.9792 10.6892 12.6287 10.485C13.6401 10.1603 14.0947 9.28806 14.0205 8.11893C13.9463 6.9498 13.473 6.48586 12.3967 6.19822C11.4874 5.95697 10.5781 6.04048 9.6409 6.15183V10.8098Z" fill="#73D614"/>
<path d="M10.9954 22.1856C4.93631 22.1856 0 17.2029 0 11.0881C0 4.97343 4.93631 0 10.9954 0C17.0544 0 22 4.97343 22 11.0881C22 17.2029 17.0637 22.1856 10.9954 22.1856ZM10.9954 2.04133C6.05905 2.04133 2.04133 6.10544 2.04133 11.0881C2.04133 16.0709 6.05905 20.1442 10.9954 20.1442C15.9317 20.1442 19.9587 16.0801 19.9587 11.0881C19.9587 6.09616 15.941 2.04133 10.9954 2.04133Z" fill="#73D614"/>
</svg>
