<svg xmlns="http://www.w3.org/2000/svg" viewBox="0 0 231.8 231.8">
  <defs>
    <style>
      .cls-1 {
        fill: #ddd;
      }
    </style>
  </defs>
  <title>icon_vk</title>
  <g id="Слой_2" data-name="Слой 2">
    <g id="гугл">
      <g>
        <path class="cls-1" d="M140.9,231.8h-50A91,91,0,0,1,0,140.9v-50A91,91,0,0,1,90.9,0h50a91,91,0,0,1,90.9,90.9v50A91,91,0,0,1,140.9,231.8ZM90.9,8A83,83,0,0,0,8,90.9v50a83,83,0,0,0,82.9,82.9h50a83,83,0,0,0,82.9-82.9v-50A83,83,0,0,0,140.9,8Z"/>
        <path class="cls-1" d="M161,149.9H150.9a17.2,17.2,0,0,1-2.9-1.1,2.6,2.6,0,0,1-1.1-.7,10.9,10.9,0,0,1-1.7-1.3,22.9,22.9,0,0,1-2.3-2.1,20,20,0,0,1-1.9-2.2l-.4-.4-1.5-1.8-1.3-1.5-1.7-1.8a13.1,13.1,0,0,0-3.2-2.5l-1.4-.5a2.4,2.4,0,0,0-1.8.5,4.2,4.2,0,0,0-1.7,1.8c-.2.5-.7,1-.7,1.6s-.4,1.5-.7,2.2-.1.8-.2,1.1a26.9,26.9,0,0,0-.3,4,6.9,6.9,0,0,1-.5,2.4,3,3,0,0,1-1.2,1.3l-1.4.6-.9.2H109.8l-2.2-.4-.8-.2-2.7-.8-1.6-.6-1.2-.4a5.9,5.9,0,0,0-1.4-.6,38.4,38.4,0,0,1-5.3-2.8l-3.3-2.2-1.7-1.4-2.8-2.5-1.6-1.6-2-2.1c-1.3-1.6-2.7-3.2-3.9-4.9s-2.5-3.3-3.6-5l-1.9-2.9-1.7-2.8-1.5-2.6-.4-.6-3-5.4c-1-1.9-2.1-3.7-3-5.6s-.8-1.4-1.1-2.1a.7.7,0,0,1-.1-.5,16.2,16.2,0,0,0-1-1.8l-.6-1.1-1.4-3c-.5-.9-.9-1.9-1.3-2.8a25.6,25.6,0,0,0-1.1-2.4,7.5,7.5,0,0,1-.8-2.4,1.8,1.8,0,0,1,.9-2.2l1.1-.5a11.7,11.7,0,0,1,3.2-.4H76.9a4,4,0,0,1,1.5.3l1.7.7a4.4,4.4,0,0,1,1.3,1.4,9.8,9.8,0,0,1,.8,1.8,6.1,6.1,0,0,0,.5,1.2,11.1,11.1,0,0,0,.7,1.6l.9,1.9c.6,1.3,1.3,2.5,1.8,3.8s.7,1.3,1,1.9l1.1,1.9,1.1,1.9,3.2,5.2.6.8,2,2.7,1.8,2a9.7,9.7,0,0,0,2.4,1.5,2.4,2.4,0,0,0,2.5-.9,9.4,9.4,0,0,0,1-2.3,12.6,12.6,0,0,0,.5-2.8,1.9,1.9,0,0,1,.1-.8,4.1,4.1,0,0,0,.1-1.1c.2-2.6.1-5.2.1-7.8s-.2-2.5-.1-3.7-.1-.4-.1-.6a16.6,16.6,0,0,0-.3-2.2,7.6,7.6,0,0,0-1.4-3.6,5.8,5.8,0,0,0-3.2-2.1h-.4a2.7,2.7,0,0,0-1.2-.3h-.4a.4.4,0,0,1-.2-.6,3.4,3.4,0,0,1,1.3-1.8,8.2,8.2,0,0,1,2-1.2,7.9,7.9,0,0,1,2.2-.6l1.3-.3h.3a5.8,5.8,0,0,0,1.9-.2c.8-.2,1.7,0,2.5-.2h6.5l3.3.2a15.5,15.5,0,0,1,3.1.4,16.8,16.8,0,0,1,2.4.6,4.1,4.1,0,0,1,2.2,1.7,7.6,7.6,0,0,1,1,3,32.5,32.5,0,0,1,.1,5.4c-.1,1.7,0,3.5-.1,5.2s0,3.9-.1,5.8-.1,1.4-.1,2.1a14.7,14.7,0,0,0,0,2.1c.1.7.1,1.5.2,2.2a14.2,14.2,0,0,0,.4,2,6.1,6.1,0,0,0,.9,1.8,2.2,2.2,0,0,0,.9.7,2,2,0,0,0,1.5.1l1.4-.7a17.5,17.5,0,0,0,2.4-2.3,16.6,16.6,0,0,0,1.6-2.1l1-1.3a5.6,5.6,0,0,0,.5-.8l1.8-2.6a25.3,25.3,0,0,0,1.3-2.2l1.6-2.7.6-1.1,1.1-2.1.3-.8c.3-.7.7-1.3,1-2s1-2.2,1.5-3.4a34.5,34.5,0,0,1,1.4-3.4l.6-1.2.3-.4a3.3,3.3,0,0,1,2.7-1.1h19.8l1.9.3h.3c.9-.1,1.5.6,2.1,1s.1.2.2.3v.2a3,3,0,0,1,0,2.9c0,.1-.1.1-.1.2a11.1,11.1,0,0,1-1,2.9,50.5,50.5,0,0,1-2.8,5.1,7.6,7.6,0,0,1-.8,1.1l-.3.5-.9,1.3c-1.4,2.1-2.9,4.1-4.5,6.1s-2,2.8-3.1,4.1l-2.4,3.1a5.6,5.6,0,0,0-.5.8c-.4.7-1,1.3-1.4,2a9.3,9.3,0,0,0-1.3,3.1,3.2,3.2,0,0,0,.5,2.5c.2.2.2.5.3.7l1.1,1.4.9,1,.9.8.5.4a30.8,30.8,0,0,0,2.7,2.4l.4.4,1.1,1.1.4.4,2.7,2.7,1.4,1.6.2.2a4.1,4.1,0,0,1,1.1,1.2l.9,1c.8.8,1.3,1.8,2,2.6a19.8,19.8,0,0,1,1.9,3.1,4.1,4.1,0,0,1,.6,2.4,3.4,3.4,0,0,1-.7,1.9,3.6,3.6,0,0,1-1.4,1.1l-1.4.5h-.3a5.9,5.9,0,0,1-2.3.4Z"/>
      </g>
    </g>
  </g>
</svg>
