<svg xmlns="http://www.w3.org/2000/svg" viewBox="0 0 231.8 231.8">
  <defs>
    <style>
      .cls-1 {
        fill: #ddd;
      }
    </style>
  </defs>
  <title>icon_inst</title>
  <g id="Слой_2" data-name="Слой 2">
    <g id="гугл">
      <g>
        <path class="cls-1" d="M140.9,231.8h-50A91,91,0,0,1,0,140.9v-50A91,91,0,0,1,90.9,0h50a91,91,0,0,1,90.9,90.9v50A91,91,0,0,1,140.9,231.8ZM90.9,8A83,83,0,0,0,8,90.9v50a83,83,0,0,0,82.9,82.9h50a83,83,0,0,0,82.9-82.9v-50A83,83,0,0,0,140.9,8Z"/>
        <g>
          <path class="cls-1" d="M175.5,116.3c-.1,7.1-.1,14.5-.2,21.8a50.5,50.5,0,0,1-2.4,15.4c-3,8.9-9,14.9-17.5,18.6a40.7,40.7,0,0,1-13.7,3.1c-12.1.6-24.2.3-36.4.3l-13-.2a44.9,44.9,0,0,1-16.2-3.2,29.5,29.5,0,0,1-16-15.8,36.5,36.5,0,0,1-3.3-14.5c-.2-11.5-.3-22.9-.4-34.4,0-4.9.1-9.8.2-14.7a45.5,45.5,0,0,1,3.2-16.3,30,30,0,0,1,16-16.1A39.9,39.9,0,0,1,91,57c12-.2,23.9-.3,35.9-.3,5.3,0,10.6.1,15.9.5a37.9,37.9,0,0,1,16.4,4.7c6.4,3.7,10.6,9.3,13.2,16.1a42.9,42.9,0,0,1,2.7,14.6C175.3,100.2,175.4,108.1,175.5,116.3Zm-10.7.6v-12a117.9,117.9,0,0,0-1.1-18.8,23,23,0,0,0-6.3-12.5,19.4,19.4,0,0,0-10.6-5.2,100,100,0,0,0-17.3-1.3H104.6a116.7,116.7,0,0,0-18.7,1.1,22.1,22.1,0,0,0-12.1,6,18.9,18.9,0,0,0-5.4,10.7,85.3,85.3,0,0,0-1.3,15.9c-.1,6.3-.1,12.6,0,18.8s.2,11.3.2,16.9a43.7,43.7,0,0,0,2,13.5,19,19,0,0,0,14.3,13.2,70,70,0,0,0,14.5,1.6c10.2.2,20.5.1,30.7.1a94.1,94.1,0,0,0,17.6-1.2c8.7-1.6,15.6-7.3,17.3-16.9a113.2,113.2,0,0,0,1.3-17.4C164.9,125.2,164.8,121,164.8,116.9Z"/>
          <path class="cls-1" d="M115.6,146.5c-15.9.3-30.6-12.9-30.7-30.5a30.9,30.9,0,0,1,30.6-30.7c17.9-.1,30.7,14.9,30.7,30.6S133.3,146.8,115.6,146.5Zm0-10.8a19.9,19.9,0,1,0-20-19.8C95.4,127.2,105.4,136,115.6,135.7Z"/>
          <path class="cls-1" d="M147.6,91.2c-3.7,0-7.3-3.5-7.2-7.2a7.3,7.3,0,0,1,14.5,0A7.7,7.7,0,0,1,147.6,91.2Z"/>
        </g>
      </g>
    </g>
  </g>
</svg>
