<svg xmlns="http://www.w3.org/2000/svg" viewBox="0 0 231.8 231.8">
  <defs>
    <style>
      .cls-1 {
        fill: #ddd;
      }
    </style>
  </defs>
  <title>icon_face</title>
  <g id="Слой_2" data-name="Слой 2">
    <g id="гугл">
      <g>
        <path class="cls-1" d="M140.9,231.8h-50A91,91,0,0,1,0,140.9v-50A91,91,0,0,1,90.9,0h50a91,91,0,0,1,90.9,90.9v50A91,91,0,0,1,140.9,231.8ZM90.9,8A83,83,0,0,0,8,90.9v50a83,83,0,0,0,82.9,82.9h50a83,83,0,0,0,82.9-82.9v-50A83,83,0,0,0,140.9,8Z"/>
        <path class="cls-1" d="M103.1,175.5V116H88.3c0-.4-.1-.7-.1-.9V96.6c0-.8.2-1.1,1.1-1.1h12.8c.8,0,1-.3,1-1,0-5.5,0-11.1.2-16.6a26.2,26.2,0,0,1,2.9-11.6,16.3,16.3,0,0,1,9.3-8,36.7,36.7,0,0,1,11.4-1.8h16.6V76.9H131.4a8.6,8.6,0,0,0-2.7.5,4.4,4.4,0,0,0-3.2,4.2c-.2,4.4-.2,8.7-.2,13.1,0,.7.5.6.9.6h17.4L141.5,116H125.3v59.5Z"/>
      </g>
    </g>
  </g>
</svg>
