<svg xmlns="http://www.w3.org/2000/svg" viewBox="0 0 72.5 137.2">
  <title>icon_down</title>
  <g id="Слой_2" data-name="Слой 2">
    <g id="Слой_1-2" data-name="Слой 1">
      <g>
        <path d="M.1,49.6C.1,36.7-.6,24,8,13.3A35,35,0,0,1,40.3.4,36.8,36.8,0,0,1,67.1,17.5c7.2,11.4,5,20.8,5.2,33.7s-1.9,30.5-12,39.5a37.1,37.1,0,0,1-25.6,9.2A37.1,37.1,0,0,1,5.9,83.6C-1.1,73.6.1,61.2.1,49.6Zm7,.1c0,11.4-1.4,23.2,6.1,32.7,6,7.5,14.9,10.8,24.3,10.5A28,28,0,0,0,60.7,80c6.3-9.4,4.4-21.4,4.4-32.2S66.5,28,60.2,19.2A28.4,28.4,0,0,0,36.2,7,28.6,28.6,0,0,0,11.7,19.6C5.5,28.5,7.1,39.5,7.1,49.7Z"/>
        <path d="M36.1,28.2c6.5,0,7,16.1-.3,16.1S28.5,28.2,36.1,28.2Z"/>
        <path d="M38.7,136.2,55,119.9a3.6,3.6,0,0,0,1-2.5,3.8,3.8,0,0,0-1.3-2.6,3.6,3.6,0,0,0-5,.1L36,128.6l-.2-.2L21.5,114.2a3.7,3.7,0,0,0-5-.4h-.1a3.3,3.3,0,0,0-1,2.4,4,4,0,0,0,1.1,2.7l17.1,17.1A3.6,3.6,0,0,0,38.7,136.2Z"/>
      </g>
    </g>
  </g>
</svg>
