<svg width="22" height="22" viewBox="0 0 22 22" fill="none" xmlns="http://www.w3.org/2000/svg">
<path fill-rule="evenodd" clip-rule="evenodd" d="M21.7071 0.292921C22.0976 0.683444 22.0976 1.31661 21.7071 1.70713L10.7071 12.7071C10.3166 13.0976 9.68341 13.0976 9.29288 12.7071C8.90236 12.3166 8.90236 11.6834 9.29288 11.2929L20.2929 0.292921C20.6834 -0.0976031 21.3166 -0.0976031 21.7071 0.292921Z" fill="#4A4A4A"/>
<path fill-rule="evenodd" clip-rule="evenodd" d="M21.7071 0.292921C21.9787 0.564558 22.0707 0.96779 21.9438 1.33038L14.9438 21.3303C14.8084 21.7173 14.4504 21.9824 14.0407 21.9992C13.6311 22.0159 13.2527 21.7808 13.0862 21.4061L9.24239 12.7576L0.593866 8.91383C0.219186 8.7473 -0.0158775 8.36893 0.000836283 7.95925C0.0175501 7.54957 0.282654 7.19161 0.669654 7.05616L20.6696 0.0561694C21.0322 -0.0707358 21.4354 0.0212832 21.7071 0.292921ZM3.71107 8.11062L10.4061 11.0862C10.6324 11.1867 10.8133 11.3676 10.9138 11.5939L13.8894 18.2889L19.37 2.63L3.71107 8.11062Z" fill="#4A4A4A"/>
</svg>
