<svg width="26" height="26" viewBox="0 0 26 26" fill="none" xmlns="http://www.w3.org/2000/svg">
<path fill-rule="evenodd" clip-rule="evenodd" d="M25.3878 12.8344C25.3938 13.2863 25.0324 13.6575 24.5806 13.6635L11.8538 13.8335C11.402 13.8396 11.0308 13.4782 11.0248 13.0264C11.0188 12.5745 11.3801 12.2034 11.832 12.1973L24.5587 12.0273C25.0106 12.0212 25.3817 12.3826 25.3878 12.8344Z" fill="#73D614"/>
<path fill-rule="evenodd" clip-rule="evenodd" d="M25.3878 12.8344C25.392 13.1487 25.2158 13.4376 24.9344 13.5778L9.4157 21.3068C9.11541 21.4564 8.75425 21.4075 8.50455 21.1834C8.25485 20.9594 8.16721 20.6057 8.28344 20.291L10.9664 13.0272L8.09031 5.83761C7.96571 5.52614 8.04387 5.17017 8.2875 4.93954C8.53112 4.70892 8.89085 4.65039 9.19502 4.79187L24.9147 12.1035C25.1997 12.2361 25.3836 12.5202 25.3878 12.8344ZM10.3761 7.14594L12.6026 12.7116C12.6778 12.8996 12.6806 13.1089 12.6104 13.2989L10.5335 18.922L22.6838 12.8706L10.3761 7.14594Z" fill="#73D614"/>
</svg>
