<svg width="18" height="18" viewBox="0 0 18 18" fill="none" xmlns="http://www.w3.org/2000/svg">
<path fill-rule="evenodd" clip-rule="evenodd" d="M17.7603 0.239662C18.0799 0.559182 18.0799 1.07723 17.7603 1.39674L8.76035 10.3967C8.44083 10.7162 7.92279 10.7162 7.60327 10.3967C7.28375 10.0772 7.28375 9.55917 7.60327 9.23965L16.6033 0.239662C16.9228 -0.0798571 17.4408 -0.0798571 17.7603 0.239662Z" fill="#73D614"/>
<path fill-rule="evenodd" clip-rule="evenodd" d="M17.7603 0.239662C17.9826 0.461911 18.0579 0.791828 17.954 1.08849L12.2268 17.4521C12.116 17.7687 11.8231 17.9856 11.4879 17.9993C11.1527 18.013 10.8431 17.8207 10.7069 17.5141L7.56195 10.438L0.48589 7.29313C0.179334 7.15688 -0.0129907 6.84731 0.000684232 6.51212C0.0143591 6.17692 0.231262 5.88404 0.547898 5.77322L16.9115 0.0459568C17.2082 -0.0578747 17.5381 0.0174135 17.7603 0.239662ZM3.03633 6.63596L8.5141 9.07053C8.6992 9.15279 8.84721 9.3008 8.92947 9.48589L11.364 14.9637L15.8482 2.15181L3.03633 6.63596Z" fill="#73D614"/>
</svg>
