<svg width="18" height="18" viewBox="0 0 18 18" fill="none" xmlns="http://www.w3.org/2000/svg">
<g id="24 / security / shield-ok">
<path id="icon" fill-rule="evenodd" clip-rule="evenodd" d="M2.25 11.25C2.25 13.2453 4.5 15.2453 9 17.25C13.5 15.25 15.75 13.25 15.75 11.25C15.75 10.9639 15.7513 10.3525 15.7529 9.59603C15.7575 7.37783 15.7648 3.91293 15.75 3.75C15.75 3.17431 15.5291 3.04051 14.9176 2.67022C14.7324 2.5581 14.5115 2.42431 14.25 2.25C13.125 1.5 11.2464 0.75 9 0.75C6.42241 0.75 3.87135 2.1691 3.75 2.25C3.48854 2.42431 3.26759 2.5581 3.08245 2.67022C2.47095 3.04051 2.25 3.17431 2.25 3.75V11.25ZM11.4697 6.21967L8.25006 9.43934L6.53039 7.71967L5.46973 8.78033L8.25006 11.5607L12.5304 7.28033L11.4697 6.21967Z" fill="#73D614"/>
</g>
</svg>
