<svg width="24" height="22" viewBox="0 0 24 22" fill="none" xmlns="http://www.w3.org/2000/svg">
<path fill-rule="evenodd" clip-rule="evenodd" d="M20.7273 0H3.27273C2.40475 0 1.57232 0.344804 0.95856 0.95856C0.344804 1.57232 0 2.40475 0 3.27273V9.81818C0 13.0008 1.26428 16.053 3.51472 18.3035C4.62902 19.4178 5.95189 20.3017 7.4078 20.9047C8.86371 21.5078 10.4241 21.8182 12 21.8182C15.1826 21.8182 18.2348 20.5539 20.4853 18.3035C22.7357 16.053 24 13.0008 24 9.81818V3.27273C24 2.40475 23.6552 1.57231 23.0414 0.95856C22.4277 0.344804 21.5953 0 20.7273 0ZM8.40775 7.95588C7.98173 7.52986 7.291 7.52986 6.86497 7.95588C6.43895 8.38191 6.43895 9.07264 6.86497 9.49866L11.2286 13.8623C11.6546 14.2883 12.3454 14.2883 12.7714 13.8623L17.135 9.49866C17.5611 9.07264 17.5611 8.38191 17.135 7.95588C16.709 7.52986 16.0183 7.52986 15.5922 7.95588L12 11.5481L8.40775 7.95588Z" fill="#4A4A4A"/>
</svg>
