<svg width="24" height="24" viewBox="0 0 24 24" fill="none" xmlns="http://www.w3.org/2000/svg">
<g clip-path="url(#clip0)">
<path d="M23.28 11.2873H21.1284C20.7869 6.77522 17.2116 3.19857 12.6982 2.85713V0.705486C12.6982 0.282243 12.416 0 11.9927 0C11.5695 0 11.2872 0.282162 11.2872 0.705486V2.85713C6.77522 3.19857 3.19857 6.77376 2.85705 11.2873H0.705486C0.282162 11.2873 0 11.5695 0 11.9927C0 12.4159 0.282162 12.6982 0.705486 12.6982H2.85713C3.19857 17.2103 6.77384 20.7869 11.2873 21.1283V23.28C11.2873 23.7032 11.5695 23.9855 11.9928 23.9855C12.416 23.9855 12.6983 23.7033 12.6983 23.28V21.1283C17.2104 20.7869 20.787 17.2116 21.1284 12.6982H23.2801C23.7033 12.6982 23.9856 12.416 23.9856 11.9927C23.9854 11.5695 23.7032 11.2873 23.28 11.2873ZM12.6982 19.716V17.6363C12.6982 17.2131 12.416 16.9309 11.9927 16.9309C11.5695 16.9309 11.2872 17.213 11.2872 17.6363V19.716C7.60897 19.3717 4.61359 16.3763 4.26932 12.6981H6.34897C6.77222 12.6981 7.05446 12.4159 7.05446 11.9926C7.05446 11.5694 6.7723 11.2871 6.34897 11.2871H4.2694C4.61368 7.60889 7.60905 4.61351 11.2873 4.26924V6.34889C11.2873 6.77213 11.5695 7.05438 11.9928 7.05438C12.416 7.05438 12.6983 6.77222 12.6983 6.34889V4.2694C16.3765 4.61368 19.3719 7.60905 19.7162 11.2873H17.6365C17.2133 11.2873 16.931 11.5695 16.931 11.9928C16.931 12.416 17.2132 12.6983 17.6365 12.6983H19.7162C19.3718 16.3764 16.3764 19.3718 12.6982 19.716Z" fill="#4A4A4A" stroke="#4A4A4A" stroke-width="0.5"/>
</g>
<defs>
<clipPath id="clip0">
<rect width="24" height="24" fill="white"/>
</clipPath>
</defs>
</svg>
