<svg width="56" height="56" viewBox="0 0 56 56" fill="none" xmlns="http://www.w3.org/2000/svg">
<path d="M28.3583 0.9017C28.2437 0.882901 28.1297 0.874355 28.0156 0.873501C28.0103 0.873286 28.0051 0.872432 27.9998 0.872647C27.9951 0.872646 27.9902 0.873288 27.9855 0.873288C27.3551 0.876493 26.7439 1.14673 26.2338 1.65686C25.9443 1.94632 25.6882 2.31183 25.4728 2.74292L9.60939 34.4692C8.77027 36.1478 9.27357 37.11 9.64826 37.5338C10.023 37.9581 10.9157 38.5761 12.6845 37.9506L21.5131 34.8291L25.4421 44.106C25.4515 44.1286 25.4617 44.1508 25.4726 44.1724C26.0669 45.361 26.9881 46.0429 28 46.0427C28.6464 46.0427 29.2557 45.7645 29.7665 45.2537C30.0553 44.9649 30.3125 44.6018 30.5272 44.1726C30.5381 44.1506 30.5483 44.1288 30.5577 44.1062L34.4869 34.8291L43.3151 37.9506C45.0023 38.547 45.8918 37.9989 46.2718 37.6189C46.6113 37.2794 47.3022 36.2929 46.3902 34.4692L30.527 2.74271C30.0044 1.69766 29.2343 1.04376 28.3583 0.9017ZM11.5324 35.8697C11.5645 35.7719 11.6132 35.6505 11.6849 35.507L26.8396 5.19702L26.8398 30.847C25.9785 30.9213 25.1582 31.0794 24.4727 31.3219L11.9107 35.7631C11.7595 35.8165 11.6335 35.8498 11.5324 35.8697ZM28.4369 43.1649C28.2446 43.5388 28.0686 43.6836 28 43.7176C27.9312 43.6834 27.7554 43.5388 27.5631 43.1649L23.7047 34.0543L25.2462 33.5096C26.7131 32.9907 29.2867 32.9909 30.7536 33.5094L32.2953 34.0543L28.4369 43.1649ZM44.3151 35.507C44.3871 35.6507 44.4355 35.7719 44.4676 35.8697C44.3663 35.8501 44.2401 35.8169 44.0884 35.7631L31.5269 31.3219C30.8414 31.0794 30.0213 30.9215 29.1598 30.847L29.16 5.1966L44.3151 35.507Z" fill="white" fill-opacity="0.75"/>
<path d="M20.3689 -8.90096C19.8713 -8.55242 19.7505 -7.8665 20.099 -7.36891C20.4476 -6.87133 21.1335 -6.7505 21.6311 -7.09904L20.3689 -8.90096ZM27.4339 -12.5067L26.8028 -13.4077L26.8028 -13.4077L27.4339 -12.5067ZM28.5823 -12.5061L27.9502 -11.6058L28.5823 -12.5061ZM34.3679 -7.09975C34.8651 -6.75065 35.5512 -6.87071 35.9003 -7.3679C36.2493 -7.8651 36.1293 -8.55116 35.6321 -8.90025L34.3679 -7.09975ZM21.6311 -7.09904L28.065 -11.6058L26.8028 -13.4077L20.3689 -8.90096L21.6311 -7.09904ZM27.9502 -11.6058L34.3679 -7.09975L35.6321 -8.90025L29.2144 -13.4063L27.9502 -11.6058ZM28.065 -11.6058C28.0305 -11.5816 27.9846 -11.5817 27.9502 -11.6058L29.2144 -13.4063C28.4909 -13.9143 27.5268 -13.9148 26.8028 -13.4077L28.065 -11.6058Z" fill="white" fill-opacity="0.75"/>
</svg>
