<svg width="22" height="22" viewBox="0 0 22 22" fill="none" xmlns="http://www.w3.org/2000/svg">
<path d="M8.64163 11.6222V11.7236V12.6222V13.7927V14.6453H8.61373V15.6453V17.1429H7.60908V15.6637V14.6637H7.57187V13.8111V12.6314V11.7973H7.58117V10.7973V4.97987C8.03142 4.92713 8.4561 4.87856 8.89388 4.84551C10.6908 4.72567 12.3315 4.66855 13.9089 5.09853L13.9089 5.09853L13.913 5.09966C15.1497 5.431 15.905 6.06411 16.154 7.18086L16.154 7.18087L16.1549 7.18492C16.4108 8.31047 16.2278 9.23114 15.7742 9.91267C15.3184 10.5977 14.5158 11.1508 13.3294 11.3937L13.3264 11.3943C12.8884 11.4854 12.4404 11.5314 11.9611 11.5658C12.2865 11.5184 12.6206 11.4535 12.9343 11.3558L12.9343 11.3558L12.9402 11.3539C13.6682 11.1223 14.245 10.6726 14.6095 10.0392C14.9642 9.42288 15.0764 8.70671 15.0303 7.98683C14.9854 7.28719 14.8101 6.63096 14.343 6.10472C13.8877 5.59173 13.2737 5.33865 12.6604 5.17626L12.6586 5.1758C11.5433 4.88263 10.4581 4.99385 9.52472 5.10372L8.64163 5.20768V6.09686V10.7236V11.6222Z" fill="#73D614" stroke="#4A4A4A" stroke-width="2"/>
<path d="M11 21C16.5228 21 21 16.5228 21 11C21 5.47715 16.5228 1 11 1C5.47715 1 1 5.47715 1 11C1 16.5228 5.47715 21 11 21Z" stroke="#4A4A4A" stroke-width="2" stroke-miterlimit="10"/>
</svg>
