<svg width="24" height="26" viewBox="0 0 24 26" fill="none" xmlns="http://www.w3.org/2000/svg">
<path d="M14.2554 8.68927C13.2416 8.42792 12.2278 8.51839 11.1934 8.63901V13.6249C11.5658 13.6249 11.8968 13.6551 12.2175 13.6149C12.983 13.5244 13.7796 13.4943 14.5141 13.2731C15.6313 12.9213 16.1382 11.9965 16.0554 10.7399C15.9727 9.4834 15.4451 8.99084 14.2554 8.68927Z" fill="black"/>
<path d="M12.5795 2.6377C6.26913 2.6377 1.14844 7.64372 1.14844 13.8158C1.14844 19.9879 6.26913 25.004 12.5795 25.004C18.8898 25.004 24.0002 19.998 24.0002 13.8158C24.0002 7.63367 18.8898 2.6377 12.5795 2.6377ZM17.7622 14.4793C16.4174 15.384 14.8657 15.6152 13.2829 15.6654C12.5898 15.6855 11.9071 15.6654 11.1726 15.6654V16.9119H15.3829V18.9224H11.1622V21.6164H7.82085V18.9525H5.74154V16.9521H7.77947V15.6755H5.7312V13.6751H7.80017V6.47766C8.6381 6.38719 9.44499 6.27662 10.2622 6.2163C12.1346 6.07557 14.0071 6.03536 15.8588 6.4274C16.9967 6.66865 18.0209 7.13106 18.7553 8.05587C20.3071 9.9658 19.8312 13.0719 17.7622 14.4793Z" fill="black"/>
<path d="M11.1934 8.63901C12.2278 8.51839 13.2416 8.42792 14.2554 8.68927C15.4451 8.99084 15.9934 9.62414 16.0554 10.7399C16.1175 11.8557 15.6313 12.9213 14.5141 13.2731C13.7796 13.4943 12.983 13.5244 12.2175 13.6149C11.8968 13.6551 11.5658 13.6249 11.1934 13.6249V8.63901Z" fill="black"/>
<path d="M0.54834 13.3137C0.552109 10.9608 1.29921 8.66568 2.68866 6.73864C4.0781 4.8116 6.04291 3.34555 8.31749 2.53863C10.5921 1.7317 13.0668 1.62283 15.4071 2.22671C17.7474 2.83059 19.8405 4.11811 21.4035 5.91525C20.2265 3.72924 18.3291 1.98991 16.0147 0.975425C13.7004 -0.0390583 11.1028 -0.270087 8.63735 0.319285C6.17193 0.908658 3.98111 2.28439 2.41527 4.22645C0.84943 6.16851 -0.000972942 8.56472 6.46416e-05 11.0319C-0.00426731 12.2676 0.209161 13.495 0.631099 14.6607C0.577452 14.2136 0.549822 13.7639 0.54834 13.3137Z" fill="black"/>
</svg>
